# AST/ASF file generated using VICON BodyLanguage
# -----------------------------------------------
:version 1.10
:name VICON
:units
  mass 1.0
  length 0.45
  angle deg
:documentation
   .ast/.asf automatically generated from VICON data using
   VICON BodyBuilder and BodyLanguage model FoxedUp or BRILLIANT.MOD
:root
   order TX TY TZ RX RY RZ
   axis XYZ
   position 0 0 0  
   orientation 0 0 0 
:bonedata
  begin
     id 1 
     name lhipjoint
     direction 0.537252 -0.787203 0.302774 
     length 2.29576 
     axis 0 0 0  XYZ
  end
  begin
     id 2 
     name lfemur
     direction 0.34202 -0.939693 0  
     length 7.31114  
     axis 0 0 20  XYZ
    dof rx ry rz
    limits (-160.0 20.0)
           (-70.0 70.0)
           (-60.0 70.0)
  end
  begin
     id 3 
     name ltibia
     direction 0.34202 -0.939693 0   
     length 8.36008   
     axis 0 0 20   XYZ
    dof rx
    limits (-10.0 170.0)
  end
  begin
     id 4 
     name lfoot
     direction 0.0969116 -0.266263 0.959016   
     length 2.16704   
     axis -90 7.62852e-016 20   XYZ
    dof rx rz
    limits (-45.0 90.0)
           (-70.0 20.0)
  end
  begin
     id 5 
     name ltoes
     direction 1.53563e-011 -4.21779e-011 1   
     length 1.08338   
     axis -90 7.62852e-016 20   XYZ
    dof rx
    limits (-90.0 20.0)
  end
  begin
     id 6 
     name rhipjoint
     direction -0.588228 -0.754791 0.290308   
     length 2.39434  
     axis 0 0 0  XYZ 
  end
  begin
     id 7 
     name rfemur
     direction -0.34202 -0.939693 0   
     length 7.45207   
     axis 0 0 -20   XYZ
    dof rx ry rz
    limits (-160.0 20.0)
           (-70.0 70.0)
           (-70.0 60.0)
  end
  begin
     id 8 
     name rtibia
     direction -0.34202 -0.939693 0   
     length 8.03565   
     axis 0 0 -20   XYZ
    dof rx
    limits (-10.0 170.0)
 end
 begin
     id 9 
     name rfoot
     direction -0.107009 -0.294004 0.949795   
     length 2.11509  
     axis -90 -7.62852e-016 -20   XYZ
    dof rx rz
    limits (-45.0 90.0)
           (-20.0 70.0)
  end
  begin
     id 10 
     name rtoes
     direction -1.53533e-011 -4.22004e-011 1   
     length 1.05493   
     axis -90 -7.62852e-016 -20   XYZ
    dof rx
    limits (-90.0 20.0)
  end
  begin
     id 11 
     name lowerback
     direction -0.0115208 0.997969 -0.0626515   
     length 2.03153   
     axis 0 0 0   XYZ
    dof rx ry rz
    limits (-20.0 45.0)
           (-30.0 30.0)
           (-30.0 30.0)
  end
  begin
     id 12 
     name upperback
     direction -0.00423475 0.999974 -0.00583614   
     length 2.03619   
     axis 0 0 0   XYZ
    dof rx ry rz
    limits (-20.0 45.0)
           (-30.0 30.0)
           (-30.0 30.0)
  end
  begin
     id 13 
     name thorax
     direction 0.00289429 0.999728 0.0231573   
     length 2.03921   
     axis 0 0 0   XYZ
    dof rx ry rz
    limits (-20.0 45.0)
           (-30.0 30.0)
           (-30.0 30.0)
  end
  begin
     id 14 
     name lowerneck
     direction 0.0188995 0.987777 0.154721   
     length 1.78836   
     axis 0 0 0   XYZ
    dof rx ry rz
    limits (-20.0 45.0)
           (-30.0 30.0)
           (-30.0 30.0)
  end
  begin
     id 15 
     name upperneck
     direction -0.00612612 0.992995 -0.118   
     length 1.81789   
     axis 0 0 0   XYZ
    dof rx ry rz
    limits (-20.0 45.0)
           (-30.0 30.0)
           (-30.0 30.0)
  end
  begin
     id 16
     name head
     direction -0.00420226 0.998397 -0.0564482  
     length 1.82234  
     axis 0 0 0   XYZ
    dof rx ry rz
    limits (-20.0 45.0)
           (-30.0 30.0)
           (-30.0 30.0)
  end
  begin
     id 17 
     name lclavicle
     direction 0.916488 0.396539 0.0529676  
     length 3.51732  
     axis 0 0 0   XYZ
    dof ry rz
    limits (-20.0 10.0)
           (0.0 20.0)
  end
  begin
     id 18 
     name lhumerus
     direction 1 -4.4896e-011 8.36962e-028   
     length 5.45077   
     axis 180 -30 -90   XYZ
    dof rx ry rz
    limits (-60.0 90.0)
           (-90.0 90.0)
           (-90.0 90.0)
  end
  begin
     id 19
     name lradius
     direction 1 -4.48962e-011 3.01407e-027   
     length 3.05488   
     axis 180 -30 -90   XYZ
    dof rx
    limits (-10.0 170.0)
  end
  begin
     id 20
     name lwrist
     direction 1 -4.49002e-011 4.72961e-027   
     length 1.52744   
     axis -2.72261e-015 90 90   XYZ
    dof ry
    limits (-180.0 0.0)
 end
  begin
     id 21 
     name lhand
     direction 1 -4.4899e-011 9.45681e-027   
     length 0.638818   
     axis -6.0311e-015 90 90   XYZ
    dof rx rz
    limits (-90.0 90.0)
           (-45.0 45.0)
  end
  begin
     id 22 
     name lfingers
     direction 1 -4.48871e-011 1.88632e-026   
     length 0.515032   
     axis -1.20625e-014 90 90   XYZ
    dof rx
    limits (0.0 90.0)
  end
  begin
     id 23
     name lthumb
     direction 0.707107 -6.34964e-011 0.707107   
     length 0.739485   
     axis -90 45 6.32835e-014   XYZ
    dof rx rz
    limits (-45.0 45.0)
           (-45.0 45.0)
  end
  begin
     id 24 
     name rclavicle
     direction -0.949427 0.303202 0.0815894   
     length 3.76167  
     axis 0 0 0   XYZ 
    dof ry rz
    limits (-10.0 20.0)
           (-20.0 0.0)
  end
  begin
     id 25 
     name rhumerus
     direction -1 -4.48971e-011 -6.43969e-018  
     length 4.88702   
     axis 180 30 90   XYZ
    dof rx ry rz
    limits (-90.0 60.0)
           (-90.0 90.0)
           (-90.0 90.0)
  end
  begin
     id 26 
     name rradius
     direction -1 -4.48987e-011 5.46662e-027   
     length 3.22603   
     axis 180 30 90   XYZ
    dof rx
    limits (-10.0 170.0)
  end
  begin
     id 27 
     name rwrist
     direction -1 -4.48956e-011 4.72476e-027   
     length 1.61302   
     axis -2.72261e-015 -90 -90   XYZ
    dof ry
    limits (-180.0 0.0)
  end
  begin
     id 28
     name rhand
     direction -1 -4.4889e-011 9.43571e-027   
     length 0.716293   
     axis -6.0311e-015 -90 -90   XYZ
    dof rx rz
    limits (-90.0 90.0)
           (-45.0 45.0)
  end
  begin
     id 29
     name rfingers
     direction -1 -4.48887e-011 1.88701e-026   
     length 0.577494   
     axis -1.20625e-014 -90 -90   XYZ
    dof rx
    limits (0.0 90.0)
  end
  begin
     id 30
     name rthumb
     direction -0.707107 -6.34825e-011 0.707107   
     length 0.829169   
     axis -90 -45 -6.32835e-014   XYZ
    dof rx rz
    limits (-45.0 45.0)
           (-45.0 45.0)
  end
:hierarchy
  begin
    root lhipjoint rhipjoint lowerback
    lhipjoint lfemur
    lfemur ltibia
    ltibia lfoot
    lfoot ltoes
    rhipjoint rfemur
    rfemur rtibia
    rtibia rfoot
    rfoot rtoes
    lowerback upperback
    upperback thorax
    thorax lowerneck lclavicle rclavicle
    lowerneck upperneck
    upperneck head
    lclavicle lhumerus
    lhumerus lradius
    lradius lwrist
    lwrist lhand lthumb
    lhand lfingers
    rclavicle rhumerus
    rhumerus rradius
    rradius rwrist
    rwrist rhand rthumb
    rhand rfingers
  end

#!OML:ASF F:\VICON\USERDATA\INSTALL\rory3\rory3.ASF
:FULLY-SPECIFIED
:DEGREES
1264
root 1.63219 18.5028 0.281507 12.3667 73.5755 0.871472
lowerback -13.4472 -4.94802 -4.38919
upperback -5.60401 -5.5935 -3.77214
thorax 1.63811 -2.64648 -2.29845
lowerneck -9.90636 -16.7285 -8.48955
upperneck 7.29784 -22.5332 10.1817
head 5.88985 -10.6806 2.28292
rclavicle 6.12257e-014 6.04305e-014
rhumerus 49.8092 -32.8295 -61.5997
rradius 45.3178
rwrist -12.404
rhand -31.9851 12.4221
rfingers 7.12502
rthumb -5.23439 -17.4932
lclavicle 6.12257e-014 6.04305e-014
lhumerus 69.2544 -51.7121 51.1764
lradius 93.2795
lwrist 61.964
lhand -24.9085 28.7566
lfingers 7.12502
lthumb 1.59997 58.7304
rfemur -7.22944 10.0036 13.3469
rtibia -1.03368e-014
rfoot -4.07262 5.64613
rtoes -2.76039
lfemur -9.88437 9.83643 -19.8935
ltibia 15.9301
lfoot -16.7891 9.73154
ltoes -27.2387
1265
root 1.63876 18.5005 0.302324 11.6439 73.5813 0.196259
lowerback -13.554 -4.94543 -4.4614
upperback -5.62315 -5.56365 -3.88021
thorax 1.67053 -2.62894 -2.37535
lowerneck -9.87283 -16.7635 -8.46869
upperneck 7.39772 -22.6043 10.2135
head 5.92404 -10.7105 2.27804
rclavicle -2.18663e-014 2.06736e-014
rhumerus 49.3779 -32.5213 -60.8835
rradius 45.8237
rwrist -12.3831
rhand -32.4922 12.3556
rfingers 7.12502
rthumb -5.72392 -17.5471
lclavicle -2.18663e-014 2.06736e-014
lhumerus 68.8847 -51.614 51.4984
lradius 93.7142
lwrist 62.0209
lhand -24.6469 28.4104
lfingers 7.12502
lthumb 1.85262 58.3821
rfemur -7.11311 10.0618 13.634
rtibia -1.35174e-014
rfoot -4.11681 5.64541
rtoes -2.76922
lfemur -9.77006 9.7203 -19.596
ltibia 15.9964
lfoot -16.9074 9.82479
ltoes -27.1104
1266
root 1.64703 18.4985 0.325233 11.3033 73.5196 -0.0703097
lowerback -13.701 -4.91776 -4.65833
upperback -5.61871 -5.47659 -4.04013
thorax 1.75566 -2.58145 -2.43396
lowerneck -9.86942 -16.8148 -8.4303
upperneck 7.50679 -22.6979 10.2347
head 5.96465 -10.7499 2.26225
rclavicle -5.36719e-014 2.06736e-014
rhumerus 49.0109 -32.4252 -60.209
rradius 46.3707
rwrist -13.0675
rhand -32.497 12.0035
rfingers 7.12502
rthumb -5.7286 -17.8991
lclavicle -5.36719e-014 2.06736e-014
lhumerus 68.6265 -51.7112 51.9003
lradius 93.9559
lwrist 61.9411
lhand -24.6698 28.4202
lfingers 7.12502
lthumb 1.83043 58.392
rfemur -6.98794 10.1601 13.7872
rtibia 9.54166e-015
rfoot -4.18435 5.68697
rtoes -2.99405
lfemur -9.63691 9.67997 -19.435
ltibia 16.0633
lfoot -16.8849 9.99027
ltoes -27.6716
1267
root 1.65216 18.5006 0.348674 10.7378 73.516 -0.57112
lowerback -13.7935 -4.90831 -4.80603
upperback -5.62916 -5.42532 -4.18494
thorax 1.79282 -2.55212 -2.5038
lowerneck -9.77976 -16.861 -8.40245
upperneck 7.54714 -22.7946 10.3486
head 5.98299 -10.7906 2.28285
rclavicle 1.78906e-015 -7.95139e-015
rhumerus 48.738 -32.3598 -59.9002
rradius 46.9334
rwrist -13.443
rhand -32.4638 11.9621
rfingers 7.12502
rthumb -5.69649 -17.9413
lclavicle 1.78906e-015 -7.95139e-015
lhumerus 68.3553 -51.8614 52.2189
lradius 94.2404
lwrist 61.728
lhand -24.8738 28.4819
lfingers 7.12502
lthumb 1.6335 58.4554
rfemur -6.87414 10.2161 14.0302
rtibia -4.77083e-015
rfoot -4.23559 5.69854
rtoes -2.76435
lfemur -9.5207 9.56063 -19.1846
ltibia 16.1666
lfoot -16.935 10.191
ltoes -28.2918
1268
root 1.65554 18.5032 0.371208 10.3918 73.5371 -0.877825
lowerback -13.8722 -4.94512 -5.0456
upperback -5.65625 -5.42349 -4.32023
thorax 1.81358 -2.54512 -2.51918
lowerneck -9.723 -16.8954 -8.33239
upperneck 7.61961 -22.8726 10.3955
head 6.00195 -10.8234 2.2787
rclavicle -6.38099e-014 2.38542e-014
rhumerus 48.4915 -32.2013 -59.6644
rradius 47.3652
rwrist -13.0888
rhand -32.5345 12.214
rfingers 7.12502
rthumb -5.76484 -17.6876
lclavicle -6.38099e-014 2.38542e-014
lhumerus 68.07 -51.9173 52.3989
lradius 94.5703
lwrist 61.522
lhand -25.3691 28.2973
lfingers 7.12502
lthumb 1.1551 58.2739
rfemur -6.80022 10.2321 14.2126
rtibia 7.15625e-015
rfoot -4.20987 5.72805
rtoes -2.74402
lfemur -9.44993 9.27748 -19.0047
ltibia 16.3044
lfoot -17.0076 10.5055
ltoes -29.2134
1269
root 1.6592 18.5019 0.392564 9.80275 73.538 -1.42963
lowerback -13.9668 -4.92467 -5.19882
upperback -5.63324 -5.35448 -4.47163
thorax 1.88692 -2.5079 -2.59216
lowerneck -9.72454 -16.9553 -8.19269
upperneck 7.62751 -22.9869 10.4685
head 6.00855 -10.8693 2.26686
rclavicle 3.61788e-014 2.8625e-014
rhumerus 48.0898 -32.1063 -59.1408
rradius 47.6916
rwrist -12.5854
rhand -32.712 12.4625
rfingers 7.12502
rthumb -5.93613 -17.4344
lclavicle 3.61788e-014 2.8625e-014
lhumerus 67.9771 -52.0206 52.3745
lradius 94.8518
lwrist 61.2455
lhand -25.7654 28.0467
lfingers 7.12502
lthumb 0.772329 58.025
rfemur -6.7273 10.2798 14.4596
rtibia -2.46493e-014
rfoot -4.14272 5.76534
rtoes -2.17543
lfemur -9.36312 9.13082 -18.7501
ltibia 16.4008
lfoot -17.0601 10.6717
ltoes -29.533
